<svg width="64" height="64" viewBox="0 0 64 64" fill="none" xmlns="http://www.w3.org/2000/svg">
<rect width="64" height="64" rx="16" fill="#312E81"/>
<path d="M15.292 21.552C15.292 19.888 15.652 18.408 16.372 17.112C17.092 15.8 18.092 14.784 19.372 14.064C20.668 13.328 22.132 12.96 23.764 12.96C25.764 12.96 27.476 13.488 28.9 14.544C30.324 15.6 31.276 17.04 31.756 18.864H27.244C26.908 18.16 26.428 17.624 25.804 17.256C25.196 16.888 24.5 16.704 23.716 16.704C22.452 16.704 21.428 17.144 20.644 18.024C19.86 18.904 19.468 20.08 19.468 21.552C19.468 23.024 19.86 24.2 20.644 25.08C21.428 25.96 22.452 26.4 23.716 26.4C24.5 26.4 25.196 26.216 25.804 25.848C26.428 25.48 26.908 24.944 27.244 24.24H31.756C31.276 26.064 30.324 27.504 28.9 28.56C27.476 29.6 25.764 30.12 23.764 30.12C22.132 30.12 20.668 29.76 19.372 29.04C18.092 28.304 17.092 27.288 16.372 25.992C15.652 24.696 15.292 23.216 15.292 21.552ZM48.7653 13.152L42.7893 30H37.6533L31.6773 13.152H36.0453L40.2213 25.872L44.4213 13.152H48.7653ZM22.3 33.152C24.076 33.152 25.628 33.504 26.956 34.208C28.284 34.912 29.308 35.904 30.028 37.184C30.764 38.448 31.132 39.912 31.132 41.576C31.132 43.224 30.764 44.688 30.028 45.968C29.308 47.248 28.276 48.24 26.932 48.944C25.604 49.648 24.06 50 22.3 50H15.988V33.152H22.3ZM22.036 46.448C23.588 46.448 24.796 46.024 25.66 45.176C26.524 44.328 26.956 43.128 26.956 41.576C26.956 40.024 26.524 38.816 25.66 37.952C24.796 37.088 23.588 36.656 22.036 36.656H20.092V46.448H22.036ZM46.7695 43.088C46.7695 43.472 46.7455 43.872 46.6975 44.288H37.4095C37.4735 45.12 37.7375 45.76 38.2015 46.208C38.6815 46.64 39.2655 46.856 39.9535 46.856C40.9775 46.856 41.6895 46.424 42.0895 45.56H46.4575C46.2335 46.44 45.8255 47.232 45.2335 47.936C44.6575 48.64 43.9295 49.192 43.0495 49.592C42.1695 49.992 41.1855 50.192 40.0975 50.192C38.7855 50.192 37.6175 49.912 36.5935 49.352C35.5695 48.792 34.7695 47.992 34.1935 46.952C33.6175 45.912 33.3295 44.696 33.3295 43.304C33.3295 41.912 33.6095 40.696 34.1695 39.656C34.7455 38.616 35.5455 37.816 36.5695 37.256C37.5935 36.696 38.7695 36.416 40.0975 36.416C41.3935 36.416 42.5455 36.688 43.5535 37.232C44.5615 37.776 45.3455 38.552 45.9055 39.56C46.4815 40.568 46.7695 41.744 46.7695 43.088ZM42.5695 42.008C42.5695 41.304 42.3295 40.744 41.8495 40.328C41.3695 39.912 40.7695 39.704 40.0495 39.704C39.3615 39.704 38.7775 39.904 38.2975 40.304C37.8335 40.704 37.5455 41.272 37.4335 42.008H42.5695Z" fill="white"/>
</svg>
