<svg width="89" height="69" viewBox="0 0 89 69" fill="none" xmlns="http://www.w3.org/2000/svg">
<path d="M0 55.8C11 48.8 17.4 41.6 19.2 34.2L16.8 34.5C12.4 34.5 8.70001 33 5.70001 30C2.70001 26.8 1.20001 23 1.20001 18.6C1.20001 13 2.89999 8.5 6.29999 5.10001C9.69999 1.7 14.2 0 19.8 0C26 0 30.8 1.9 34.2 5.7C37.6 9.5 39.3 14.7 39.3 21.3C39.3 30.9 36.5 39.7 30.9 47.7C25.3 55.7 17.3 62.6 6.89999 68.4L0 55.8ZM49.5 55.8C60.5 49 66.9 41.8 68.7 34.2L66.3 34.5C61.9 34.5 58.2 33 55.2 30C52.2 26.8 50.7 23 50.7 18.6C50.7 13 52.4 8.5 55.8 5.10001C59.2 1.7 63.7 0 69.3 0C75.5 0 80.3 1.9 83.7 5.7C87.1 9.5 88.8 14.7 88.8 21.3C88.8 30.9 86 39.7 80.4 47.7C74.8 55.7 66.8 62.6 56.4 68.4L49.5 55.8Z" fill="black"/>
</svg>
