<svg width="90" height="70" viewBox="0 0 90 70" fill="none" xmlns="http://www.w3.org/2000/svg">
<path d="M20 69.3C13.8 69.3 9 67.4 5.6 63.6C2.2 59.8 0.5 54.6 0.5 48C0.5 38.4 3.3 29.6 8.9 21.6C14.5 13.6 22.5 6.70002 32.9 0.900024L39.8 13.5C28.8 20.3 22.4 27.5 20.6 35.1L23 34.8C27.4 34.8 31.1 36.4 34.1 39.6C37.1 42.6 38.6 46.3 38.6 50.7C38.6 56.3 36.9 60.8 33.5 64.2C30.1 67.6 25.6 69.3 20 69.3ZM69.5 69.3C63.3 69.3 58.5 67.4 55.1 63.6C51.7 59.8 50 54.6 50 48C50 38.4 52.8 29.6 58.4 21.6C64 13.6 72 6.70002 82.4 0.900024L89.3 13.5C78.3 20.5 71.9 27.7 70.1 35.1L72.5 34.8C76.9 34.8 80.6 36.4 83.6 39.6C86.6 42.6 88.1 46.3 88.1 50.7C88.1 56.3 86.4 60.8 83 64.2C79.6 67.6 75.1 69.3 69.5 69.3Z" fill="black"/>
</svg>
